<svg width="256" height="256" viewBox="0 0 256 256" fill="none" xmlns="http://www.w3.org/2000/svg">
<path fill-rule="evenodd" clip-rule="evenodd" d="M26.1538 165L0 250L85 223.846L26.1538 165Z" fill="#347370"/>
<path fill-rule="evenodd" clip-rule="evenodd" d="M128 0C198.692 0 256 57.3076 256 128C256 198.692 198.692 256 128 256C57.3076 256 0 198.692 0 128C0 57.3076 57.3076 0 128 0ZM53.3498 147.9C72.673 176.885 97.8646 192 128 192C158.135 192 183.327 176.885 202.65 147.9C206.572 142.018 204.982 134.071 199.1 130.15C193.218 126.228 185.271 127.818 181.35 133.7C166.54 155.915 149.065 166.4 128 166.4C106.935 166.4 89.4603 155.915 74.6502 133.7C70.7289 127.818 62.7818 126.228 56.8998 130.15C51.0179 134.071 49.4284 142.018 53.3498 147.9Z" fill="#347370"/>
</svg>
